<?xml version="1.0" encoding="UTF-8" standalone="no"?>
<svg
   xmlns:dc="http://purl.org/dc/elements/1.1/"
   xmlns:cc="http://creativecommons.org/ns#"
   xmlns:rdf="http://www.w3.org/1999/02/22-rdf-syntax-ns#"
   xmlns:svg="http://www.w3.org/2000/svg"
   xmlns="http://www.w3.org/2000/svg"
   xmlns:sodipodi="http://sodipodi.sourceforge.net/DTD/sodipodi-0.dtd"
   xmlns:inkscape="http://www.inkscape.org/namespaces/inkscape"
   version="1.1"
   width="45"
   height="45"
   id="svg4760"
   inkscape:version="0.48.2 r9819"
   sodipodi:docname="king.svg">
  <metadata
     id="metadata4782">
    <rdf:RDF>
      <cc:Work
         rdf:about="">
        <dc:format>image/svg+xml</dc:format>
        <dc:type
           rdf:resource="http://purl.org/dc/dcmitype/StillImage" />
        <dc:title></dc:title>
      </cc:Work>
    </rdf:RDF>
  </metadata>
  <sodipodi:namedview
     pagecolor="#ffffff"
     bordercolor="#666666"
     borderopacity="1"
     objecttolerance="10"
     gridtolerance="10"
     guidetolerance="10"
     inkscape:pageopacity="0"
     inkscape:pageshadow="2"
     inkscape:window-width="640"
     inkscape:window-height="480"
     id="namedview4780"
     showgrid="false"
     inkscape:zoom="5.2444444"
     inkscape:cx="12.108051"
     inkscape:cy="22.5"
     inkscape:window-x="340"
     inkscape:window-y="0"
     inkscape:window-maximized="0"
     inkscape:current-layer="svg4760" />
  <defs
     id="defs4762" />
  <g
     style="fill-rule:evenodd;fill-opacity:1;stroke:#000000;stroke-width:1.50000000000000000;stroke-linejoin:miter;stroke-miterlimit:4;stroke-dasharray:none;stroke-opacity:1;fill:#008000"
     id="g4764">
    <path
       d="M 22.5,11.625 L 22.5,6"
       style="fill:#008000;fill-opacity:0.75000000000000000;stroke-linecap:round"
       id="path4766" />
    <path
       d="M 22.5,25 C 22.5,25 27,17.5 25.5,14.5 C 25.5,14.5 24.5,12 22.5,12 C 20.5,12 19.5,14.5 19.5,14.5 C 18,17.5 22.5,25 22.5,25"
       style="fill:#008000;stroke-linecap:butt"
       id="path4768" />
    <path
       d="M 11.5,37 C 17,40.5 27,40.5 32.5,37 L 32.5,30 C 32.5,30 41.5,25.5 38.5,19.5 C 34.5,13 25,16 22.5,23.5 L 22.5,27 L 22.5,23.5 C 19,16 9.5,13 6.5,19.5 C 3.5,25.5 11.5,29.5 11.5,29.5 L 11.5,37 z "
       style="fill:#008000;stroke-linecap:round;stroke-linejoin:round"
       id="path4770" />
    <path
       d="M 20,8 L 25,8"
       style="fill:#008000;fill-opacity:0.75000000000000000;stroke-linecap:round"
       id="path4772" />
    <path
       d="M 11.5,29.5 C 17,27 27,27 32.5,30"
       style="fill:#008000;fill-opacity:0.75000000000000000;stroke-linecap:round"
       id="path4774" />
    <path
       d="M 11.5,37 C 17,34.5 27,34.5 32.5,37"
       style="fill:#008000;fill-opacity:0.75000000000000000;stroke-linecap:round;stroke-linejoin:round"
       id="path4776" />
    <path
       d="M 11.5,33.5 C 17,31.5 27,31.5 32.5,33.5"
       style="fill:#008000;fill-opacity:0.75000000000000000;stroke-linecap:round;stroke-linejoin:round"
       id="path4778" />
  </g>
</svg>
